<?xml version="1.0" standalone="no"?>
<!DOCTYPE svg PUBLIC "-//W3C//DTD SVG 20010904//EN"
 "http://www.w3.org/TR/2001/REC-SVG-20010904/DTD/svg10.dtd">
<svg version="1.0" xmlns="http://www.w3.org/2000/svg"
 width="586.000000pt" height="586.000000pt" viewBox="0 0 586.000000 586.000000"
 preserveAspectRatio="xMidYMid meet">
<metadata>
Created by potrace 1.14, written by Peter Selinger 2001-2017
</metadata>
<g transform="translate(0.000000,586.000000) scale(0.100000,-0.100000)"
fill="#000000" stroke="none">
<path d="M0 2930 l0 -2930 2930 0 2930 0 0 490 c0 320 -3 490 -10 490 -5 0
-10 18 -10 39 0 29 -5 41 -17 44 -17 4 -17 5 0 6 9 0 17 8 17 16 0 8 5 15 10
15 7 0 10 800 10 2380 l0 2380 -1465 0 c-1431 0 -1465 0 -1465 -19 0 -27 -31
-36 -47 -15 -7 10 -13 21 -13 26 0 10 -490 11 -491 1 -2 -30 -8 -66 -11 -68
-2 -1 -13 -6 -25 -9 -16 -5 -23 -2 -28 13 -3 11 -16 21 -28 23 -14 2 -23 11
-25 26 l-3 22 -1130 0 -1129 0 0 -2930z m4110 2360 c0 -19 -72 -144 -101 -176
-10 -11 -19 -27 -19 -36 0 -8 -9 -25 -20 -38 -11 -13 -20 -33 -20 -46 0 -17
-4 -21 -20 -17 -17 5 -18 1 -13 -31 6 -41 -9 -66 -36 -59 -15 4 -18 0 -14 -21
5 -24 2 -26 -28 -26 -31 -1 -32 -2 -16 -14 13 -10 15 -16 6 -21 -6 -4 -15 -2
-19 5 -6 9 -9 6 -12 -11 -1 -13 -10 -24 -18 -24 -8 0 -22 -7 -30 -15 -14 -14
-14 -16 2 -28 23 -17 13 -35 -13 -27 -33 11 -47 -11 -44 -68 3 -70 14 -120 36
-164 11 -21 19 -47 19 -60 0 -12 4 -25 10 -28 5 -3 7 -19 4 -35 -4 -16 -2 -42
4 -59 7 -21 7 -31 0 -33 -6 -2 -12 -36 -13 -75 -2 -64 0 -72 19 -81 19 -10 18
-11 -11 -11 -30 -1 -32 -3 -29 -31 2 -16 -1 -27 -5 -24 -5 3 -9 0 -9 -6 0 -6
7 -13 16 -17 13 -5 13 -7 2 -15 -10 -7 -9 -11 6 -23 19 -15 19 -15 -1 -15 -12
0 -25 -4 -28 -10 -3 -6 4 -10 17 -10 18 0 20 -2 8 -10 -12 -8 -10 -10 10 -11
24 -2 24 -2 3 -6 -27 -5 -28 -9 -6 -31 16 -16 16 -17 0 -20 -27 -5 -20 -17 18
-32 20 -8 41 -21 48 -28 7 -9 -5 -6 -32 7 -23 12 -45 20 -49 17 -3 -3 30 -22
74 -42 134 -61 144 -66 139 -74 -7 -11 22 -21 39 -14 14 5 31 -11 31 -30 0 -5
6 -11 14 -14 9 -3 11 0 5 9 -7 12 -5 12 9 0 9 -7 14 -18 10 -24 -4 -7 0 -8 13
-3 10 4 15 4 11 0 -4 -4 4 -15 17 -23 26 -18 82 -81 71 -81 -4 0 -26 19 -49
43 -75 76 -372 240 -388 213 -5 -6 1 -14 15 -18 23 -6 17 -10 -18 -12 -46 -2
1 -70 57 -82 15 -4 33 -13 40 -21 8 -10 -4 -8 -43 7 -30 12 -67 24 -83 26
l-30 4 25 -26 c13 -14 38 -33 54 -41 44 -23 155 -105 155 -116 0 -4 -27 12
-59 37 -67 52 -103 68 -128 59 -12 -5 -15 -2 -10 9 4 12 1 14 -14 11 -10 -3
-17 -9 -14 -13 3 -5 -1 -10 -7 -12 -16 -6 25 -66 82 -122 22 -22 40 -43 40
-48 0 -4 6 -8 13 -8 7 0 19 -16 27 -35 8 -19 17 -35 21 -35 4 0 10 -8 14 -19
3 -10 20 -34 38 -52 18 -19 34 -38 34 -43 1 -5 21 -21 45 -37 l43 -29 -30 -1
-30 -1 28 -12 c15 -7 25 -15 21 -18 -3 -4 4 -20 17 -37 12 -17 20 -33 17 -36
-3 -3 -180 0 -394 6 -508 15 -1283 5 -1569 -21 -60 -5 -198 -12 -305 -15 -107
-3 -276 -10 -375 -15 -108 -6 -192 -6 -210 -1 -18 6 -23 10 -11 10 15 1 17 6
12 37 -5 26 -2 43 10 61 16 25 16 27 -1 39 -15 11 -15 13 6 25 22 11 22 12 4
25 -14 10 -15 14 -4 15 10 0 10 2 2 6 -19 7 -16 23 4 23 13 0 14 3 6 11 -9 9
-8 16 4 28 15 15 15 16 -1 19 -14 3 -15 6 -5 18 7 8 11 37 10 65 -1 36 3 51
14 55 8 4 15 18 15 33 0 37 21 92 48 125 12 16 22 38 22 50 0 12 5 27 11 33 6
6 12 28 13 49 2 22 11 56 20 76 9 21 16 41 16 45 0 4 9 19 20 33 11 14 20 34
20 45 0 11 18 38 39 60 27 28 39 50 38 70 0 19 8 34 22 43 11 8 21 21 21 30 0
8 13 37 30 63 16 27 28 49 25 49 -7 0 24 73 33 80 4 3 16 24 26 46 13 31 15
46 7 61 -5 11 -8 29 -5 40 4 12 -4 37 -18 59 -13 22 -31 53 -40 69 -9 17 -23
31 -30 31 -7 1 -17 2 -22 3 -5 0 -2 9 8 20 28 31 9 56 -37 51 -15 -1 -17 3
-12 20 8 27 -19 70 -44 70 -11 0 -21 9 -24 21 -4 15 -11 20 -21 16 -12 -5 -16
0 -16 21 0 15 -11 43 -23 62 -13 19 -27 47 -31 62 -3 15 -16 37 -28 48 -12 11
-18 20 -14 20 4 0 -4 21 -18 48 -32 61 -56 117 -56 131 0 16 26 13 73 -8 114
-51 233 -91 337 -115 234 -52 278 -59 312 -51 18 4 65 9 105 10 68 2 73 4 99
35 26 30 31 32 77 27 46 -6 49 -5 65 24 24 42 72 53 245 52 81 0 147 3 147 8
0 13 64 23 68 10 2 -6 12 -11 22 -11 10 0 22 -4 25 -10 3 -5 22 -10 42 -10 19
0 58 -11 86 -25 71 -36 143 -51 164 -34 13 11 19 9 43 -17 18 -21 32 -29 41
-24 23 13 162 21 194 12 21 -6 49 -3 95 10 36 10 78 18 94 18 16 0 45 4 65 10
20 5 68 17 106 25 71 17 152 43 170 56 6 3 35 14 65 23 30 9 66 23 80 31 30
17 50 19 50 5z m-300 -1430 c0 -5 -7 -7 -15 -4 -8 4 -15 8 -15 10 0 2 7 4 15
4 8 0 15 -4 15 -10z m55 -240 c3 -6 -1 -7 -9 -4 -18 7 -21 14 -7 14 6 0 13 -4
16 -10z m-125 -30 c0 -5 -2 -10 -4 -10 -3 0 -8 5 -11 10 -3 6 -1 10 4 10 6 0
11 -4 11 -10z m46 -38 c-4 -3 -14 2 -24 12 -16 18 -16 18 6 6 13 -6 21 -14 18
-18z m214 -128 l55 -58 -70 64 c-38 35 -72 66 -75 68 -3 3 4 0 15 -6 11 -6 45
-37 75 -68z m-941 -414 c30 -17 60 -30 68 -30 7 0 13 -4 13 -10 0 -5 18 -19
40 -30 33 -17 59 -20 154 -20 174 0 702 -19 866 -31 430 -31 597 -92 745 -269
36 -43 65 -80 65 -83 0 -2 12 -30 26 -61 l26 -57 39 40 c21 23 43 41 49 41 24
0 70 -31 71 -48 0 -10 3 -12 6 -4 7 17 19 15 58 -11 43 -29 32 -43 -30 -39
-34 3 -45 8 -41 18 4 10 -4 12 -31 8 -40 -5 -58 -14 -28 -14 18 0 18 -1 0 -14
-11 -8 -25 -12 -31 -9 -7 2 -15 0 -19 -6 -3 -6 0 -11 7 -11 8 0 7 -5 -4 -16
-15 -15 -14 -20 5 -66 17 -43 24 -49 44 -45 26 5 25 5 17 -17 -3 -9 -12 -16
-19 -16 -14 0 -13 -27 4 -85 7 -22 16 -62 20 -90 5 -27 15 -84 24 -125 29
-138 47 -325 48 -496 2 -180 -6 -218 -64 -343 -33 -72 -129 -160 -226 -210
-242 -121 -532 -162 -1310 -182 -857 -21 -1922 6 -2365 62 -281 35 -345 54
-532 152 -36 20 -91 78 -120 127 -42 72 -60 201 -45 315 37 261 184 697 325
960 109 203 225 348 330 414 64 40 183 89 271 113 117 31 478 66 790 78 329
12 509 19 512 19 1 1 11 17 23 37 29 46 86 83 130 83 21 0 57 -12 89 -29z
m2347 -640 c23 -14 64 -70 64 -88 0 -7 -14 -12 -32 -12 -30 0 -31 1 -12 15 12
9 14 14 5 15 -8 0 -11 6 -7 16 4 10 1 14 -6 12 -7 -3 -22 4 -33 14 -11 11 -32
22 -47 25 -27 5 -34 14 -22 25 7 8 65 -6 90 -22z m-192 -89 c11 -12 15 -21 10
-21 -5 0 2 -6 15 -13 30 -15 39 -37 15 -37 -9 0 -15 3 -12 6 4 3 -14 24 -38
47 -24 23 -44 45 -44 50 0 11 32 -7 54 -32z m266 -48 c0 -14 -6 -23 -15 -23
-8 0 -15 -5 -15 -11 0 -6 9 -9 20 -6 18 5 20 0 20 -51 0 -82 15 -129 44 -136
13 -3 31 -17 40 -32 10 -14 26 -34 37 -45 10 -10 19 -28 19 -40 0 -20 -1 -20
-29 -3 -17 10 -32 28 -36 41 -3 13 -12 23 -21 23 -18 0 -44 23 -44 39 0 6 -3
11 -8 11 -4 0 -8 18 -8 40 -1 22 -6 46 -13 53 -6 8 -8 17 -4 20 3 4 0 7 -7 7
-34 0 -47 81 -16 102 7 5 5 8 -5 8 -9 0 -22 6 -28 14 -10 12 -5 14 29 13 34
-2 40 -5 40 -24z m-285 -33 c3 -5 -3 -10 -15 -10 -12 0 -18 5 -15 10 3 6 10
10 15 10 5 0 12 -4 15 -10z m105 -21 c0 -5 -4 -9 -10 -9 -5 0 -10 7 -10 16 0
8 5 12 10 9 6 -3 10 -10 10 -16z m-47 -11 c-2 -5 7 -8 21 -8 23 0 25 -2 16
-26 -8 -19 -6 -29 5 -40 24 -25 17 -40 -7 -17 -13 11 -38 28 -55 37 -18 9 -33
21 -33 26 0 6 -6 10 -14 10 -8 0 -17 7 -20 15 -5 13 3 15 43 13 27 -2 47 -6
44 -10z m84 -34 c2 -13 1 -15 -4 -4 -3 8 -11 19 -17 23 -7 6 -6 7 4 4 8 -2 16
-12 17 -23z m43 -48 c0 -4 -9 -1 -19 6 -11 7 -17 16 -15 20 5 8 34 -15 34 -26z
m26 -81 c4 -8 12 -15 20 -15 8 0 14 -10 14 -25 0 -19 -5 -25 -22 -26 -13 0
-17 -3 -10 -6 6 -2 9 -9 6 -15 -3 -5 2 -9 12 -8 48 5 63 -15 20 -26 -18 -4
-32 4 -65 37 -24 24 -41 52 -41 65 0 21 5 24 53 33 4 0 10 -6 13 -14z m253
-190 c0 -5 -4 -3 -9 5 -5 8 -9 22 -9 30 0 16 17 -16 18 -35z m-99 -75 c0 -5
-4 -10 -10 -10 -5 0 -10 5 -10 10 0 6 5 10 10 10 6 0 10 -4 10 -10z m14 -36
c3 -8 2 -12 -4 -9 -6 3 -10 10 -10 16 0 14 7 11 14 -7z m231 -723 c-3 -2 -5 1
-5 9 0 10 -3 10 -15 0 -12 -10 -15 -9 -15 7 0 10 6 25 12 31 10 10 14 7 20
-15 4 -15 5 -29 3 -32z"/>
<path d="M3287 4475 c-37 -13 -78 -30 -92 -39 -21 -14 -22 -18 -12 -51 10 -33
13 -35 51 -35 67 1 118 17 147 48 24 26 59 83 59 97 0 13 -91 2 -153 -20z"/>
<path d="M2435 4432 c-45 -8 -46 -12 -13 -40 53 -46 130 -70 220 -68 43 1 82
6 88 12 13 13 -34 64 -60 64 -10 0 -22 5 -25 10 -4 6 -10 8 -14 6 -4 -3 -25 0
-47 5 -41 12 -115 17 -149 11z"/>
<path d="M3166 4085 c-9 -23 -8 -25 9 -25 17 0 19 9 6 28 -7 11 -10 10 -15 -3z"/>
<path d="M2970 4064 c0 -9 7 -14 17 -12 25 5 28 28 4 28 -12 0 -21 -6 -21 -16z"/>
<path d="M3134 4022 c-21 -19 -80 -23 -104 -7 -8 5 -36 10 -62 10 -47 0 -48 0
-25 -17 12 -10 27 -18 33 -18 6 0 17 -7 24 -15 7 -9 18 -14 24 -12 7 3 12 -12
13 -37 2 -22 4 -55 5 -72 2 -31 -30 -74 -55 -74 -18 0 -130 -40 -144 -52 -7
-5 -21 -7 -31 -4 -11 4 -24 0 -32 -9 -8 -9 -29 -15 -55 -15 -43 0 -73 -19 -60
-40 3 -5 -1 -10 -9 -10 -9 0 -16 -4 -16 -10 0 -5 4 -10 9 -10 6 0 13 5 16 10
10 15 35 12 35 -5 0 -8 7 -15 15 -15 8 0 15 7 15 15 0 8 5 15 10 15 6 0 10 -7
10 -15 0 -18 17 -20 23 -2 3 9 7 9 19 -1 12 -10 21 -9 44 3 32 16 88 28 205
44 75 10 118 6 130 -12 4 -5 20 -2 38 7 23 12 31 23 31 44 0 33 -14 57 -28 48
-6 -3 -40 5 -76 20 -53 21 -66 30 -66 48 0 23 50 109 94 162 35 43 12 64 -30
26z"/>
<path d="M2340 3890 c-8 -5 -10 -10 -5 -10 6 0 17 5 25 10 8 5 11 10 5 10 -5
0 -17 -5 -25 -10z"/>
<path d="M3251 3724 c0 -11 3 -14 6 -6 3 7 2 16 -1 19 -3 4 -6 -2 -5 -13z"/>
<path d="M2626 3723 c-4 -5 -12 -8 -17 -8 -5 0 -8 -3 -6 -6 1 -4 -7 -17 -18
-30 l-20 -23 23 16 c13 9 30 26 38 37 15 21 15 28 0 14z"/>
<path d="M3985 3680 c3 -5 11 -10 16 -10 6 0 7 5 4 10 -3 6 -11 10 -16 10 -6
0 -7 -4 -4 -10z"/>
<path d="M3130 3508 c-19 -5 -42 -15 -50 -22 -8 -7 -26 -17 -40 -21 -36 -11
-190 -21 -190 -12 0 4 -6 7 -13 7 -23 0 -67 25 -67 38 0 8 -18 12 -55 12 -30
0 -55 -4 -55 -9 0 -10 59 -57 95 -77 35 -19 87 -27 95 -15 5 9 19 9 51 2 55
-13 186 -14 193 -2 3 5 21 12 40 15 33 6 72 36 47 36 -24 0 -9 21 19 27 29 5
42 23 18 23 -7 0 -22 2 -33 4 -11 3 -36 0 -55 -6z m-333 -54 c-3 -3 -12 -4
-19 -1 -8 3 -5 6 6 6 11 1 17 -2 13 -5z"/>
<path d="M2622 3307 c-61 -9 -73 -19 -32 -30 13 -3 20 0 20 9 0 23 17 16 24
-10 8 -31 63 -51 121 -43 34 5 47 2 66 -14 15 -13 25 -16 29 -8 4 6 27 10 51
9 94 -5 109 -2 109 24 0 20 -6 25 -40 31 -23 4 -40 12 -40 20 0 27 -153 32
-308 12z m131 -34 c-13 -2 -33 -2 -45 0 -13 2 -3 4 22 4 25 0 35 -2 23 -4z"/>
<path d="M2394 3275 c-9 -22 5 -38 22 -24 18 15 18 25 -1 33 -9 3 -18 -1 -21
-9z"/>
<path d="M2450 3260 c0 -5 7 -10 15 -10 8 0 15 5 15 10 0 6 -7 10 -15 10 -8 0
-15 -4 -15 -10z"/>
<path d="M2330 3243 c0 -13 5 -23 10 -23 13 0 13 11 0 30 -8 12 -10 11 -10 -7z"/>
<path d="M3570 2851 c0 -9 30 -24 36 -18 2 1 -6 8 -16 15 -11 7 -20 8 -20 3z"/>
<path d="M3306 2783 c3 -98 3 -106 3 -130 -1 -26 -21 -30 -39 -8 -18 21 -40
19 -40 -5 0 -11 -4 -20 -9 -20 -15 0 -23 19 -14 33 20 32 31 81 22 99 -5 10
-14 18 -19 18 -6 0 -10 11 -10 25 0 14 -4 25 -9 25 -11 0 -25 -30 -22 -47 1
-7 -8 -13 -21 -13 -13 0 -30 -5 -38 -10 -11 -7 -7 -10 17 -10 17 0 35 -5 39
-12 10 -16 -25 -39 -52 -32 -28 7 -71 -24 -66 -48 2 -13 -2 -15 -19 -11 -18 5
-21 3 -16 -10 3 -9 1 -18 -6 -21 -11 -4 3 -20 25 -28 5 -2 10 -25 12 -53 2
-27 7 -58 11 -68 4 -10 3 -29 -4 -43 -15 -33 -14 -44 4 -44 8 0 15 -4 15 -10
0 -5 -5 -10 -11 -10 -5 0 -8 -4 -4 -9 9 -16 -13 -23 -36 -10 -19 10 -18 7 6
-25 15 -20 33 -40 40 -44 7 -4 16 -17 19 -29 6 -18 4 -22 -7 -17 -8 3 -18 1
-22 -5 -3 -6 -17 -11 -30 -11 -13 0 -41 -10 -61 -22 -21 -12 -45 -23 -54 -23
-27 -2 -74 -45 -103 -92 -15 -24 -30 -43 -35 -43 -5 0 -17 18 -28 39 -21 45
-58 60 -74 31 -5 -10 -21 -21 -35 -24 -30 -8 -31 -17 -5 -41 11 -10 20 -28 21
-39 0 -20 1 -20 8 -2 9 23 61 32 61 11 0 -8 -5 -17 -10 -20 -19 -12 0 -26 20
-15 23 12 37 -4 20 -24 -14 -18 -31 -76 -21 -76 11 0 29 -78 20 -87 -4 -4 -9
-25 -11 -46 -1 -21 -8 -42 -16 -46 -9 -5 -16 -30 -18 -67 -3 -32 -12 -104 -21
-159 -9 -55 -18 -133 -20 -172 -3 -40 -9 -73 -14 -73 -5 0 -9 -5 -9 -11 0 -5
4 -8 9 -4 22 13 22 -19 0 -36 -13 -10 -20 -19 -15 -19 5 0 4 -6 -2 -12 -13
-17 -17 -57 -8 -89 8 -30 2 -29 146 -10 41 5 76 14 78 20 2 6 10 11 17 11 8 0
28 20 46 45 27 38 38 45 66 45 29 0 33 3 33 25 0 23 4 25 40 25 40 0 40 0 26
-23 -20 -30 -9 -43 39 -42 40 0 40 0 40 -37 0 -20 7 -45 15 -55 22 -27 40 -71
40 -99 0 -13 7 -27 15 -30 23 -9 65 23 65 49 0 18 2 19 10 7 8 -12 10 -10 10
9 0 24 -13 25 -65 5 -30 -12 6 34 37 47 16 6 28 17 28 23 0 7 6 24 13 39 14
30 30 33 104 16 70 -16 206 9 300 55 40 20 79 36 88 36 22 0 105 -40 105 -51
0 -5 9 -9 21 -9 20 0 89 -49 120 -85 34 -40 274 -34 316 8 14 14 14 17 0 32
-16 15 -14 37 6 62 16 22 28 3 24 -38 -5 -45 9 -40 16 6 2 17 10 29 16 27 6
-1 11 9 11 22 0 14 9 31 21 39 l21 15 -21 7 c-33 10 -24 32 12 26 4 0 7 8 7
19 0 11 7 20 15 20 8 0 15 -5 15 -10 0 -6 9 -2 21 9 12 11 18 24 14 30 -3 7
-3 11 2 10 18 -3 33 2 33 11 0 6 -11 10 -23 10 -38 0 -38 11 -1 41 29 23 40
27 56 18 29 -16 63 -7 63 16 1 28 -38 106 -64 129 -17 15 -20 27 -16 54 6 39
-8 62 -36 62 -21 0 -24 -11 -8 -27 8 -8 5 -17 -12 -34 -13 -13 -27 -23 -31
-22 -4 2 -19 -4 -34 -12 -15 -8 -31 -12 -36 -9 -5 3 -14 1 -21 -4 -7 -5 -22
-12 -34 -15 -24 -5 -25 -4 -27 60 -1 40 -9 47 -35 33 -18 -9 -27 -6 -59 20
-20 16 -46 30 -58 30 -17 0 -23 8 -28 39 -3 22 -12 42 -18 45 -10 3 -8 9 5 19
25 21 21 29 -13 22 -24 -5 -30 -3 -30 11 0 9 -7 22 -17 29 -10 8 -14 19 -9 30
6 17 8 17 27 -3 21 -23 38 -28 40 -12 1 6 2 16 3 23 3 19 28 9 59 -23 19 -20
27 -39 27 -64 0 -20 7 -41 16 -48 9 -7 27 -24 40 -37 17 -17 28 -21 35 -14 8
8 2 18 -20 34 -21 15 -29 29 -26 40 3 10 1 20 -4 24 -6 3 -10 17 -9 29 2 26
17 25 55 -4 12 -10 44 -23 70 -29 26 -7 57 -17 68 -22 11 -5 34 -11 50 -13 17
-3 40 -8 53 -11 12 -4 22 -3 22 1 0 5 -10 14 -22 19 -18 8 -23 18 -23 45 -1
19 -4 41 -8 47 -5 8 3 17 25 27 l33 14 -42 1 c-41 1 -43 0 -43 -29 0 -41 -27
-40 -64 3 -18 20 -31 27 -33 20 -3 -7 -12 -13 -20 -13 -10 0 -13 6 -8 18 12
32 10 37 -26 55 -29 14 -42 31 -64 80 -15 34 -34 66 -41 70 -8 4 -14 17 -14
27 0 11 -5 20 -11 20 -5 0 -8 4 -5 9 3 5 0 14 -8 20 -13 11 -27 9 -71 -9 -11
-5 -69 -21 -130 -35 -60 -15 -117 -33 -125 -40 -8 -7 -44 -17 -80 -22 -69 -11
-67 -12 -109 42 l-23 30 7 -36 c6 -31 4 -36 -19 -47 -15 -6 -23 -17 -21 -25 6
-14 -46 -37 -84 -37 -12 0 -40 -10 -63 -21 -23 -12 -67 -30 -98 -40 -32 -10
-74 -34 -95 -53 l-38 -35 -25 19 c-30 24 -42 25 -42 5 0 -19 0 -19 -39 1 -17
9 -38 13 -46 10 -19 -7 -45 3 -45 16 0 6 -12 21 -26 33 -27 24 -26 49 2 38 14
-5 15 0 9 35 -6 36 -2 50 24 96 17 29 31 61 31 70 0 14 8 15 53 10 65 -8 296
22 346 45 39 17 45 22 118 86 56 50 102 140 105 209 2 28 9 56 16 61 19 15
-14 58 -39 50 -11 -4 -19 -2 -19 4 0 6 5 11 10 11 19 0 10 20 -12 31 -13 5
-34 16 -48 24 -14 8 -33 15 -42 15 -12 0 -18 8 -18 24 0 22 -3 24 -34 19 -40
-6 -78 11 -74 35 5 26 -30 26 -53 0 -13 -14 -22 -19 -25 -11 -3 7 -14 9 -32 4
-27 -8 -52 6 -52 29 0 5 -6 10 -13 10 -10 0 -13 -17 -11 -67z m-129 -105 c-3
-8 -6 -5 -6 6 -1 11 2 17 5 13 3 -3 4 -12 1 -19z m413 2 c0 -5 -2 -10 -4 -10
-3 0 -8 5 -11 10 -3 6 -1 10 4 10 6 0 11 -4 11 -10z m-24 -58 c-10 -10 -29 15
-21 28 6 9 10 8 17 -4 6 -10 7 -20 4 -24z m-489 -12 c1 -11 -2 -20 -8 -20 -10
0 -12 23 -2 33 9 9 9 10 10 -13z m123 -11 c0 -4 -7 -6 -15 -3 -8 4 -15 10 -15
15 0 4 7 6 15 3 8 -4 15 -10 15 -15z m291 -42 c-1 -12 -15 -9 -19 4 -3 6 1 10
8 8 6 -3 11 -8 11 -12z m-341 -177 c0 -5 -2 -10 -4 -10 -3 0 -8 5 -11 10 -3 6
-1 10 4 10 6 0 11 -4 11 -10z m180 -60 c0 -5 -10 -10 -22 -9 -22 0 -22 1 -3 9
11 5 21 9 23 9 1 1 2 -3 2 -9z m-75 -10 c3 -5 1 -10 -4 -10 -6 0 -11 5 -11 10
0 6 2 10 4 10 3 0 8 -4 11 -10z m-435 -374 c0 -21 -20 -30 -33 -17 -9 9 -8 14
3 21 21 14 30 12 30 -4z m-64 -64 c-14 -14 -16 -14 -16 -1 0 20 23 44 29 28 2
-6 -4 -18 -13 -27z m504 -3 c0 -6 -4 -7 -10 -4 -5 3 -10 11 -10 16 0 6 5 7 10
4 6 -3 10 -11 10 -16z m-196 -25 c3 -8 10 -12 16 -9 5 3 10 -1 10 -9 0 -9 -2
-16 -5 -16 -8 0 -45 34 -45 42 0 14 18 8 24 -8z m226 12 c0 -3 -4 -8 -10 -11
-5 -3 -10 -1 -10 4 0 6 5 11 10 11 6 0 10 -2 10 -4z m-129 -71 c8 5 9 1 4 -16
-11 -34 -13 -35 -36 -11 -22 24 -17 51 6 32 8 -7 19 -9 26 -5z m279 -5 c0 -5
-7 -10 -16 -10 -8 0 -12 5 -9 10 3 6 10 10 16 10 5 0 9 -4 9 -10z m115 -13 c7
-6 2 -8 -15 -3 -14 3 -31 6 -37 6 -7 0 -13 5 -13 10 0 12 50 2 65 -13z m-347
-13 c22 -10 32 -23 32 -38 0 -23 -17 -46 -34 -46 -17 0 -45 57 -39 79 6 25 3
25 41 5z m-142 -9 c-11 -8 -27 -15 -35 -15 -13 1 -12 4 3 15 11 8 27 15 35 15
13 -1 12 -4 -3 -15z m79 -35 c3 -5 1 -10 -4 -10 -6 0 -11 5 -11 10 0 6 2 10 4
10 3 0 8 -4 11 -10z m-45 -25 c0 -18 12 -19 27 -4 7 7 14 1 22 -22 10 -30 9
-35 -11 -51 -13 -10 -32 -20 -43 -23 -11 -4 -30 -11 -42 -17 -13 -6 -26 -9
-29 -5 -11 11 5 37 23 37 10 0 27 12 37 27 17 23 18 26 2 35 -20 11 -21 38 -1
38 8 0 15 -7 15 -15z m630 -21 c0 -8 -5 -12 -10 -9 -6 4 -8 11 -5 16 9 14 15
11 15 -7z m-340 -24 c0 -5 6 -10 14 -10 8 0 22 -7 31 -17 14 -14 18 -14 27 -2
7 11 11 11 15 2 2 -7 15 -13 28 -13 14 0 25 -7 28 -21 3 -11 11 -19 19 -18 7
2 30 -8 51 -21 28 -17 35 -25 25 -31 -18 -12 -58 -11 -58 1 0 6 -4 10 -9 10
-5 0 -6 -20 -4 -44 3 -26 1 -46 -6 -50 -6 -4 -11 -16 -11 -27 0 -22 35 -27 43
-5 3 7 18 16 32 19 21 3 29 0 32 -14 4 -14 10 -16 27 -9 13 5 29 4 37 -1 12
-7 12 -9 -1 -9 -9 -1 -6 -5 8 -10 26 -11 28 -27 5 -52 -15 -17 -15 -18 5 -18
12 0 22 -5 22 -11 0 -6 -10 -8 -22 -5 l-23 6 23 -11 c47 -25 29 -46 -88 -105
-56 -28 -62 -29 -130 -33 -64 -3 -65 -3 -47 16 9 11 17 26 17 34 0 12 2 11 11
-1 10 -13 10 -13 6 0 -16 51 -42 106 -53 112 -6 4 -15 19 -18 33 -4 14 -10 24
-15 21 -4 -3 -19 6 -31 19 -13 14 -30 25 -38 25 -11 0 -13 8 -8 35 3 19 9 51
12 70 4 20 17 45 33 58 26 22 48 58 33 56 -4 -1 -17 -1 -29 0 -25 1 -32 31 -8
31 8 0 15 -4 15 -10z m360 -14 c0 -3 -4 -8 -10 -11 -5 -3 -10 -1 -10 4 0 6 5
11 10 11 6 0 10 -2 10 -4z m130 -16 c8 -14 8 -26 0 -40 -10 -20 -12 -20 -35
-3 -37 27 -30 47 22 62 1 1 7 -8 13 -19z m-583 -66 c-9 -9 -28 6 -21 18 4 6
10 6 17 -1 6 -6 8 -13 4 -17z m-308 -25 c-11 -11 -23 -18 -26 -15 -9 8 17 36
33 36 10 0 7 -7 -7 -21z m218 -8 c17 -10 17 -10 1 -11 -10 0 -18 -4 -18 -10 0
-5 7 -10 15 -10 20 0 40 -50 27 -70 -5 -8 -14 -15 -19 -15 -6 0 -22 -15 -37
-32 -15 -18 -35 -33 -45 -33 -9 0 -24 -9 -34 -20 -9 -11 -24 -20 -34 -20 -23
0 -53 -29 -53 -52 0 -13 -7 -18 -27 -17 -17 0 -22 3 -13 6 17 7 39 34 40 48 0
6 -4 4 -9 -4 -5 -7 -14 -10 -21 -6 -9 6 -9 9 1 16 11 7 12 12 2 29 -7 11 -13
24 -13 29 0 16 46 61 62 61 23 0 29 12 16 28 -10 12 -7 19 16 37 23 18 25 23
12 28 -27 10 -18 25 17 30 45 5 93 0 114 -12z m693 -56 c0 -8 -4 -15 -10 -15
-5 0 -10 7 -10 15 0 8 5 15 10 15 6 0 10 -7 10 -15z m580 -136 c0 -18 -2 -19
-15 -9 -15 12 -12 30 6 30 5 0 9 -10 9 -21z m-1150 -50 c0 -16 -3 -29 -8 -29
-9 0 -31 68 -24 75 11 11 32 -19 32 -46z m690 47 c0 -3 -4 -8 -10 -11 -5 -3
-10 -1 -10 4 0 6 5 11 10 11 6 0 10 -2 10 -4z m427 -23 c3 -7 -4 -9 -16 -6
-12 3 -18 9 -15 15 7 11 26 6 31 -9z m-226 -2 c-8 -5 -20 -7 -28 -4 -21 8 -15
13 15 13 20 0 23 -3 13 -9z m-1437 -53 c-1 -24 -2 -47 -3 -51 -1 -4 -10 -3
-22 4 -17 9 -20 17 -15 41 7 34 24 60 35 53 4 -2 6 -23 5 -47z m1578 -29 c16
-8 22 -8 29 2 4 7 11 11 14 7 4 -4 -5 -14 -19 -23 -21 -14 -29 -15 -41 -5 -15
12 -20 30 -9 30 3 0 15 -5 26 -11z m-282 -99 c0 -5 -4 -10 -10 -10 -5 0 -10 5
-10 10 0 6 5 10 10 10 6 0 10 -4 10 -10z m-833 -162 c-3 -8 -6 -5 -6 6 -1 11
2 17 5 13 3 -3 4 -12 1 -19z"/>
<path d="M3450 1545 c0 -33 2 -35 36 -35 21 0 33 4 29 10 -3 6 -12 10 -19 10
-9 0 -12 9 -8 25 3 20 0 25 -17 25 -17 0 -21 -6 -21 -35z"/>
<path d="M3000 2685 c-7 -9 -10 -18 -7 -21 7 -8 47 14 47 26 0 15 -26 12 -40
-5z"/>
<path d="M4466 2525 c-11 -8 -14 -15 -8 -15 7 0 11 -3 11 -7 -4 -23 5 -29 44
-29 31 1 42 -3 42 -14 0 -10 -10 -15 -29 -15 -35 0 -46 -21 -17 -30 12 -3 21
-12 21 -19 0 -18 -43 -56 -63 -56 -9 0 -17 -7 -17 -16 0 -9 -7 -14 -17 -12
-13 3 -17 12 -15 30 2 22 -5 29 -51 52 -30 14 -57 26 -60 26 -11 0 -8 -106 3
-134 6 -17 6 -26 0 -26 -20 0 -50 36 -56 66 -6 32 -37 74 -54 74 -5 0 -12 -5
-16 -11 -4 -8 -10 -6 -17 6 -13 23 -27 2 -27 -42 0 -31 -1 -31 -32 -22 -18 5
-34 14 -36 19 -2 6 -8 10 -14 10 -5 0 -24 12 -43 26 -58 44 -96 49 -157 20
-36 -17 -46 -25 -31 -25 12 -1 25 3 28 9 8 13 35 8 65 -13 13 -9 28 -17 33
-17 4 0 17 -9 29 -20 12 -11 30 -20 41 -20 23 0 50 -26 42 -40 -5 -8 -11 -8
-20 0 -10 8 -15 8 -20 -1 -10 -14 12 -28 35 -22 10 3 33 -9 55 -29 25 -21 40
-29 43 -20 2 6 15 12 28 12 13 0 24 5 24 11 0 5 13 2 30 -7 27 -16 31 -16 47
-2 10 8 39 19 64 22 26 4 55 13 65 21 47 36 200 -2 246 -60 21 -27 44 -33 51
-12 2 6 2 0 0 -15 -3 -16 0 -28 5 -28 25 0 28 123 5 178 -17 40 -90 142 -102
142 -4 0 -19 9 -32 21 -13 11 -36 23 -52 26 -15 3 -30 10 -33 14 -7 12 -16 11
-38 -6z m-361 -235 c3 -6 -1 -7 -9 -4 -18 7 -21 14 -7 14 6 0 13 -4 16 -10z"/>
<path d="M4365 2510 c-3 -5 -1 -10 4 -10 6 0 11 5 11 10 0 6 -2 10 -4 10 -3 0
-8 -4 -11 -10z"/>
<path d="M4340 2464 c0 -8 5 -12 10 -9 6 3 10 10 10 16 0 5 -4 9 -10 9 -5 0
-10 -7 -10 -16z"/>
<path d="M5140 2459 c0 -5 11 -9 25 -9 14 0 25 2 25 4 0 2 -11 6 -25 8 -14 3
-25 1 -25 -3z"/>
<path d="M4435 2381 c-3 -5 -1 -12 5 -16 5 -3 10 1 10 9 0 18 -6 21 -15 7z"/>
<path d="M3760 2340 c-12 -16 -27 -30 -34 -30 -8 0 -16 -19 -19 -52 -7 -55 -2
-72 13 -48 8 12 10 10 10 -7 0 -14 6 -23 15 -23 8 0 15 -6 15 -14 0 -7 7 -19
15 -26 14 -12 16 -6 13 51 -2 46 -8 68 -20 77 -16 12 -16 14 0 45 9 17 20 34
25 35 10 5 9 22 -2 22 -5 0 -19 -13 -31 -30z"/>
<path d="M3803 2293 c-15 -5 -17 -23 -4 -23 5 0 11 7 15 15 3 8 4 15 3 14 -1
0 -8 -3 -14 -6z"/>
<path d="M2680 2215 c-6 -8 -9 -19 -5 -25 3 -5 1 -10 -6 -10 -20 0 -68 -51
-62 -66 7 -20 26 -17 41 6 7 11 21 20 31 20 22 0 45 25 36 40 -4 6 8 16 25 24
31 13 32 13 9 19 -37 10 -56 8 -69 -8z"/>
<path d="M3850 2216 c0 -10 9 -16 21 -16 24 0 21 23 -4 28 -10 2 -17 -3 -17
-12z"/>
<path d="M2748 2183 c7 -3 16 -2 19 1 4 3 -2 6 -13 5 -11 0 -14 -3 -6 -6z"/>
<path d="M2592 2040 c0 -14 2 -19 5 -12 2 6 2 18 0 25 -3 6 -5 1 -5 -13z"/>
<path d="M2610 2009 c0 -5 5 -7 10 -4 6 3 10 8 10 11 0 2 -4 4 -10 4 -5 0 -10
-5 -10 -11z"/>
<path d="M2590 1925 c0 -8 -9 -15 -19 -15 -10 0 -21 -6 -24 -14 -7 -18 29 -61
38 -46 11 17 24 11 31 -15 3 -13 13 -30 22 -37 13 -11 14 -10 9 14 -4 15 -3
30 3 33 6 3 0 22 -15 44 -13 22 -21 42 -18 45 4 3 -1 6 -10 6 -9 0 -17 -7 -17
-15z"/>
<path d="M2685 1909 c-8 -23 -1 -34 14 -24 13 8 15 45 2 45 -5 0 -13 -9 -16
-21z"/>
<path d="M2519 1783 c-1 -5 0 -20 1 -35 1 -14 -3 -29 -8 -32 -12 -7 -7 -53 8
-71 9 -11 7 -19 -9 -36 -14 -15 -18 -26 -11 -33 15 -15 12 -33 -7 -40 -12 -5
-26 3 -44 26 -26 31 -28 32 -46 15 -11 -9 -27 -17 -35 -17 -9 0 -21 -7 -28
-15 -13 -16 -32 -21 -28 -7 1 4 -10 20 -24 36 -24 25 -32 27 -65 21 -84 -16
-123 -14 -137 7 -8 11 -19 17 -25 14 -13 -8 -26 18 -35 67 -6 31 -11 37 -31
37 -19 0 -25 -5 -25 -21 0 -11 -4 -17 -10 -14 -17 11 -31 -5 -21 -23 7 -13 3
-19 -19 -28 -17 -8 -30 -21 -32 -35 -2 -12 -12 -27 -23 -33 -11 -6 -22 -12
-24 -13 -10 -6 -10 -77 0 -89 8 -10 8 -18 1 -26 -12 -16 -6 -96 8 -113 31 -38
28 -105 -5 -105 -8 0 -15 -4 -15 -10 0 -5 11 -10 25 -10 17 0 29 -8 35 -22 5
-13 15 -30 22 -38 23 -28 88 -62 108 -57 13 3 32 -7 57 -29 46 -42 72 -41 93
3 l15 32 77 -4 76 -4 30 47 c33 52 57 102 97 207 15 39 32 84 39 100 7 17 21
66 31 110 9 44 21 93 26 109 7 21 4 44 -8 82 -16 48 -31 68 -34 47z"/>
<path d="M4695 1749 c-4 -6 -13 -8 -21 -5 -7 3 -16 1 -18 -3 -8 -13 17 -70 32
-76 21 -8 42 14 42 44 0 15 5 32 12 39 9 9 6 12 -14 12 -15 0 -30 -5 -33 -11z"/>
<path d="M4396 1614 c-10 -26 -7 -34 14 -34 23 0 27 22 6 39 -11 9 -15 8 -20
-5z"/>
<path d="M3030 1050 c0 -6 9 -18 20 -27 11 -10 20 -23 20 -31 0 -9 10 -12 33
-10 69 7 33 78 -40 78 -18 0 -33 -5 -33 -10z"/>
<path d="M3117 923 c-4 -3 -3 -11 3 -18 5 -6 7 -21 4 -32 -5 -19 -9 -20 -30
-11 -28 13 -42 4 -25 -16 13 -16 9 -20 -34 -31 l-30 -7 25 -10 c35 -13 95 -1
81 16 -20 24 1 25 26 0 13 -13 27 -24 31 -24 14 0 28 15 26 28 -1 6 -2 16 -3
21 0 5 -11 11 -22 14 -15 4 -20 12 -17 24 5 19 -24 58 -35 46z"/>
<path d="M2983 908 c2 -7 10 -12 16 -10 6 1 11 -4 11 -10 0 -9 4 -8 10 2 15
24 12 30 -16 30 -16 0 -24 -5 -21 -12z"/>
<path d="M3215 800 c3 -5 8 -10 11 -10 2 0 4 5 4 10 0 6 -5 10 -11 10 -5 0 -7
-4 -4 -10z"/>
<path d="M2778 793 c7 -3 16 -2 19 1 4 3 -2 6 -13 5 -11 0 -14 -3 -6 -6z"/>
<path d="M5245 2140 c-3 -5 -1 -10 4 -10 6 0 11 5 11 10 0 6 -2 10 -4 10 -3 0
-8 -4 -11 -10z"/>
</g>
</svg>
